HIERARCHY
ROOT Hips
{
	OFFSET 0.000000 0.000000 0.000000
	CHANNELS 6 Xposition Yposition Zposition Zrotation Yrotation Xrotation 
	JOINT LHipJoint
	{
		OFFSET 0.000000 0.000000 0.000000
		CHANNELS 3 Zrotation Yrotation Xrotation
		JOINT LeftUpLeg
		{
			OFFSET 1.363060 -1.794630 0.839290
			CHANNELS 3 Zrotation Yrotation Xrotation
			JOINT LeftLeg
			{
				OFFSET 2.448110 -6.726130 0.000000
				CHANNELS 3 Zrotation Yrotation Xrotation
				JOINT LeftFoot
				{
					OFFSET 2.562200 -7.039590 0.000000
					CHANNELS 3 Zrotation Yrotation Xrotation
					JOINT LeftToeBase
					{
						OFFSET 0.157640 -0.433110 2.322550
						CHANNELS 3 Zrotation Yrotation Xrotation
						End Site
						{
							OFFSET 0.000000 0.000000 0.000000
						}
					}
				}
			}
		}
	}
	JOINT RHipJoint
	{
		OFFSET 0.000000 0.000000 0.000000
		CHANNELS 3 Zrotation Yrotation Xrotation
		JOINT RightUpLeg
		{
			OFFSET -1.305520 -1.794630 0.839290
			CHANNELS 3 Zrotation Yrotation Xrotation
			JOINT RightLeg
			{
				OFFSET -2.542530 -6.985550 0.000000
				CHANNELS 3 Zrotation Yrotation Xrotation
				JOINT RightFoot
				{
					OFFSET -2.568260 -7.056230 0.000000
					CHANNELS 3 Zrotation Yrotation Xrotation
					JOINT RightToeBase
					{
						OFFSET -0.164730 -0.452590 2.363150
						CHANNELS 3 Zrotation Yrotation Xrotation
						End Site
						{
							OFFSET 0.000000 0.000000 0.000000
						}
					}
				}
			}
		}
	}
}
MOTION
Frames: 28
Frame Time: 0.008333
10.563506 16.390215 2.762648 124.678992 -84.633192 -116.181767 -11.920349 5.711634 2.462161 -5.348591 5.361581 5.553298 -1.103603 1.300542 24.563416 0.505540 2.590981 1.585406 0.357400 0.000000 -89.754900 8.639566 -0.677842 4.898246 4.843284 0.116934 -43.567257 1.445002 -0.941070 19.797177 -0.803134 -5.873555 11.887071 -3.020200 0.000000 -62.228300
10.411923 16.398802 2.721887 130.054600 -84.794915 -121.805523 -12.221504 5.874144 2.345317 -4.192210 6.443503 4.558973 -0.925897 1.514661 26.893944 0.497176 1.983367 3.536650 0.302400 0.000000 -90.825300 8.491509 -0.691730 4.762768 5.613991 0.317813 -43.314390 1.394576 -1.049862 21.371276 -0.822104 -5.939593 11.390778 -2.977700 -0.000000 -61.750400
10.266822 16.407999 2.680280 135.951663 -84.938472 -127.951589 -12.477238 6.024188 2.198219 -3.019583 7.551630 3.475580 -0.761959 1.731907 29.332744 0.520378 1.389632 5.537242 0.196099 -0.000000 -90.796900 8.384445 -0.664609 4.620031 6.354598 0.545470 -42.928075 1.345091 -1.127427 22.793521 -0.850744 -6.033440 10.655558 -2.920700 -0.000000 -61.304600
10.127897 16.417835 2.638221 142.618348 -85.076938 -134.852055 -12.666867 6.159300 2.026891 -1.835141 8.652823 2.291874 -0.619692 1.953121 31.876004 0.577883 0.894388 7.478523 0.058001 -0.000000 -89.580500 8.332357 -0.595358 4.476241 7.086298 0.798389 -42.425576 1.299730 -1.173987 24.035934 -0.891196 -6.172790 9.744551 -2.859400 0.000000 -60.878100
9.994896 16.428321 2.595352 150.001896 -85.229504 -142.443590 -12.751724 6.268910 1.839536 -0.685349 9.684388 1.016611 -0.501997 2.176638 34.507798 0.667303 0.615089 9.245201 -0.066600 -0.000000 -87.161399 8.362562 -0.487582 4.334895 7.801703 1.030936 -41.846490 1.260154 -1.198123 25.104301 -0.942288 -6.338753 8.705947 -2.786699 0.000000 -60.437000
9.867468 16.439631 2.552033 158.808582 -85.442790 -151.423513 -12.677513 6.342903 1.639828 0.427348 10.612728 -0.355295 -0.406848 2.401362 37.223090 0.780259 0.641079 10.720868 -0.125201 -0.000000 -83.635099 8.515798 -0.348797 4.207232 8.520641 1.221519 -41.221086 1.230168 -1.209879 25.984633 -1.006410 -6.536196 7.601649 -2.706100 0.000000 -59.965200
9.744913 16.452043 2.508777 171.695476 -85.883501 -164.440764 -12.301777 6.325295 1.420700 1.563582 11.387624 -1.823018 -0.307278 2.602450 40.036385 0.903691 1.027969 11.806088 -0.070300 0.000000 -79.208400 8.895897 -0.222245 4.129851 9.294943 1.341645 -40.586252 1.223500 -1.241451 26.635959 -1.097499 -6.796234 6.487884 -2.624600 -0.000001 -59.461600
9.626751 16.465857 2.466079 -162.552888 -87.373213 169.669402 -11.576857 5.775396 1.156902 2.810702 11.736182 -3.319205 0.005446 2.548780 43.060993 1.011382 1.773627 12.443305 0.128300 -0.000000 -74.172300 9.444252 -0.527000 4.216367 10.073398 1.158142 -40.080070 1.328169 -1.439014 26.954696 -1.275143 -7.214701 5.355029 -2.546600 -0.000001 -58.939100
9.512615 16.481371 2.424033 70.334173 -89.931738 -63.419323 -12.493459 4.620133 1.021898 3.302781 11.715364 -4.866445 0.592235 2.157068 46.091854 1.136550 2.963897 12.641933 0.474000 0.000000 -68.852000 8.468894 -1.598895 4.263539 10.120535 0.493542 -39.764533 1.549804 -1.675853 27.220119 -1.437900 -7.553347 4.223645 -2.470000 0.000000 -58.414000
9.401889 16.498853 2.383206 111.413548 -88.710170 -104.516827 -13.661366 4.652117 0.991300 3.295871 12.343295 -6.692298 0.612790 2.404778 48.675579 1.331054 4.644620 12.364280 0.934900 0.000000 -63.552700 7.533431 -1.577718 3.985172 10.222330 0.355609 -39.192058 1.531291 -1.504735 27.627792 -1.421505 -7.588952 3.388932 -2.400500 -0.000001 -57.923100
9.294377 16.518503 2.343692 128.921773 -88.368484 -121.984247 -13.958783 4.798815 0.909720 3.473913 12.925964 -8.595033 0.556651 2.740218 51.190287 1.527024 6.598569 11.642196 1.457300 -0.000000 -58.498400 7.367022 -1.326177 3.773011 10.615484 0.259119 -38.604922 1.501041 -1.350255 27.803555 -1.420739 -7.652785 2.709944 -2.335300 0.000001 -57.491100
9.189677 16.540379 2.306113 137.336359 -88.389443 -130.336395 -14.014716 4.796755 0.817949 3.641564 13.376039 -10.517930 0.554275 3.004079 53.615548 1.725735 8.716460 10.544346 1.969700 0.000000 -53.838000 7.366525 -1.181635 3.636412 11.034542 0.069239 -38.065886 1.507249 -1.248616 27.775477 -1.437641 -7.737895 2.160412 -2.281600 -0.000001 -57.155799
9.087732 16.564491 2.270312 142.407165 -88.524920 -135.329481 -14.006138 4.712808 0.730513 3.709671 13.751702 -12.439837 0.576874 3.222614 55.873850 1.931054 10.895569 9.141798 2.405700 0.000000 -49.625300 7.396487 -1.107948 3.532960 11.414662 -0.197015 -37.556632 1.534714 -1.168912 27.602168 -1.450654 -7.788491 1.734265 -2.233699 -0.000000 -56.923901
8.988579 16.590701 2.236320 145.785192 -88.687938 -138.621050 -13.972157 4.581228 0.645902 3.672353 14.096634 -14.337718 0.606892 3.408269 57.915990 2.138995 13.015199 7.512129 2.708900 0.000000 -45.870800 7.431100 -1.079768 3.448745 11.746077 -0.506085 -37.057898 1.576218 -1.099342 27.307361 -1.452930 -7.788810 1.420151 -2.189600 0.000000 -56.798300
8.892284 16.618807 2.203829 148.281021 -88.828955 -141.031361 -13.917407 4.425519 0.557818 3.532223 14.440415 -16.175950 0.632077 3.567916 59.701141 2.341146 14.963772 5.737835 2.845500 -0.000000 -42.558200 7.472335 -1.076591 3.372098 12.020290 -0.842546 -36.548858 1.626689 -1.035067 26.918029 -1.439898 -7.719638 1.191903 -2.142100 0.000000 -56.755600
8.799112 16.648589 2.172545 150.283702 -88.925111 -142.959908 -13.841043 4.258214 0.459737 3.302624 14.803189 -17.925061 0.644964 3.703678 61.200458 2.526208 16.642450 3.905973 2.808200 -0.000000 -39.693400 7.524023 -1.086306 3.296503 12.232340 -1.190069 -36.012197 1.682915 -0.973996 26.451069 -1.411061 -7.577314 1.025950 -2.087200 0.000000 -56.776400
8.708870 16.679748 2.142561 151.807002 -88.977709 -144.418459 -13.752374 4.078956 0.349359 3.011083 15.197009 -19.578819 0.642439 3.813550 62.403128 2.681514 17.967681 2.096589 2.613400 -0.000000 -37.270600 7.576271 -1.110232 3.225038 12.391592 -1.517139 -35.440434 1.744692 -0.914929 25.906528 -1.371374 -7.384784 0.908416 -2.028500 0.000000 -56.849100
8.621730 16.712012 2.113289 153.209479 -88.972088 -145.774615 -13.640511 3.900919 0.221477 2.662429 15.627340 -21.106221 0.619149 3.900066 63.290164 2.796504 18.894281 0.389903 2.303201 -0.000000 -35.317200 7.643513 -1.133878 3.148540 12.487564 -1.827264 -34.820442 1.807763 -0.857210 25.308637 -1.320261 -7.133781 0.813151 -1.959500 -0.000000 -56.935100
8.537646 16.745093 2.084685 154.541764 -88.914997 -147.078654 -13.508438 3.724685 0.076360 2.276455 16.092279 -22.504173 0.573976 3.962465 63.860067 2.863026 19.398295 -1.149552 1.929400 -0.000000 -33.843801 7.723229 -1.155814 3.068513 12.526479 -2.103185 -34.150529 1.870719 -0.800073 24.659118 -1.262658 -6.847426 0.732770 -1.884500 -0.000000 -57.021600
8.456362 16.778748 2.056753 155.884070 -88.814240 -148.405932 -13.357937 3.551553 -0.083654 1.868948 16.584096 -23.772699 0.506533 4.000782 64.115448 2.877158 19.485670 -2.476111 1.543500 -0.000000 -32.820600 7.814677 -1.174251 2.986273 12.514497 -2.333823 -33.432185 1.932015 -0.742671 23.959113 -1.202845 -6.547166 0.665024 -1.807999 -0.000000 -57.097800
8.377641 16.812778 2.029479 157.419919 -88.676436 -149.937457 -13.186139 3.385155 -0.255069 1.450637 17.089977 -24.911775 0.416946 4.016105 64.060982 2.840000 19.191952 -3.564051 1.188000 -0.000000 -32.202200 7.922544 -1.184732 2.901637 12.456802 -2.516371 -32.669076 1.989474 -0.684327 23.212820 -1.143711 -6.248736 0.610683 -1.733599 -0.000000 -57.156900
8.301030 16.846972 2.002949 159.393865 -88.511420 -151.909728 -12.988770 3.228738 -0.431524 1.032408 17.592003 -25.929508 0.306303 4.009469 63.707112 2.757369 18.575404 -4.412873 0.888200 0.000000 -31.906400 8.052497 -1.184041 2.816622 12.362942 -2.649382 -31.870732 2.041531 -0.624327 22.422162 -1.087836 -5.967880 0.575069 -1.665100 0.000000 -57.198700
8.226074 16.881125 1.977402 162.170457 -88.332467 -154.679050 -12.757723 3.084437 -0.605785 0.626342 18.070111 -26.838909 0.176458 3.981431 63.068360 2.638894 17.710414 -5.045921 0.652000 -0.000000 -31.827000 8.213187 -1.169652 2.734963 12.247328 -2.731166 -31.049676 2.087121 -0.562227 21.585924 -1.037631 -5.720856 0.567834 -1.607000 -0.000000 -57.231100
8.152350 16.915114 1.953027 166.548907 -88.161218 -159.039611 -12.468752 2.954085 -0.773169 0.250381 18.503423 -27.644740 0.030296 3.930114 62.160120 2.496475 16.679764 -5.503403 0.474000 -0.000000 -31.870900 8.428936 -1.137643 2.659455 12.128496 -2.768562 -30.212330 2.125390 -0.499314 20.701945 -0.994430 -5.516772 0.597448 -1.561400 0.000000 -57.266500
8.079453 16.948763 1.930073 174.368552 -88.067994 -166.825432 -12.065236 2.820151 -0.931897 -0.063252 18.856206 -28.355537 -0.121812 3.837983 61.010181 2.342716 15.564691 -5.838041 0.341399 -0.000000 -31.961701 8.752812 -1.095495 2.602220 12.039266 -2.774686 -29.374782 2.158127 -0.444696 19.759964 -0.962950 -5.371139 0.669120 -1.529600 -0.000000 -57.316500
8.006921 16.981907 1.908764 -169.545466 -88.344608 177.138925 -11.484913 2.538195 -1.094045 -0.273187 19.012843 -28.956495 -0.230980 3.611038 59.678087 2.187918 14.429491 -6.107082 0.239700 0.000000 -32.057500 9.235434 -1.144081 2.600574 12.009675 -2.810742 -28.581230 2.203585 -0.443120 18.717103 -0.964821 -5.328789 0.764949 -1.511101 0.000000 -57.391500
7.934594 17.014357 1.889244 -135.736708 -89.524314 143.369928 -11.252085 1.768937 -1.249584 -0.581737 18.771174 -29.367378 -0.217224 3.117378 58.177842 2.036740 13.329152 -6.353638 0.156901 -0.000000 -32.146600 9.361794 -1.583087 2.656640 11.813474 -3.030688 -27.906959 2.307435 -0.545541 17.562257 -1.024285 -5.407957 0.827016 -1.503900 0.000001 -57.499100
7.862017 17.045908 1.871631 83.274311 -89.381688 -75.574049 -11.720330 1.263514 -1.293091 -1.177461 18.623119 -29.681668 -0.325963 2.854916 56.275914 1.902890 12.373497 -6.596638 0.084699 -0.000000 -32.235101 8.837297 -1.892856 2.573439 11.337001 -3.194800 -27.176420 2.375928 -0.517353 16.547459 -1.023920 -5.355730 0.953267 -1.506100 -0.000000 -57.637100
